<?xml version="1.0" standalone="no"?>
<!DOCTYPE svg PUBLIC "-//W3C//DTD SVG 20010904//EN"
 "http://www.w3.org/TR/2001/REC-SVG-20010904/DTD/svg10.dtd">
<svg version="1.0" xmlns="http://www.w3.org/2000/svg"
 width="24.000000pt" height="24.000000pt" viewBox="0 0 24.000000 24.000000"
 preserveAspectRatio="xMidYMid meet">

<g transform="translate(0.000000,24.000000) scale(0.100000,-0.100000)"
fill="#000000" stroke="none">
<path d="M25 229 c-4 -6 -4 -13 -1 -16 3 -4 6 -1 6 5 0 7 5 12 10 12 12 0 11
-65 -1 -100 -8 -24 -9 -23 -5 5 2 17 0 39 -5 50 -5 12 -7 -14 -6 -70 l2 -90
55 -3 c30 -1 62 -5 70 -9 27 -11 35 -11 48 3 7 8 8 14 2 14 -5 0 -10 4 -10 10
0 5 6 9 13 7 7 -1 13 10 14 28 1 20 0 23 -4 8 -4 -21 -10 -23 -79 -23 l-74 0
0 85 0 85 75 0 74 0 4 -62 3 -63 2 68 2 67 -94 0 c-56 0 -97 -4 -101 -11z m21
-166 c-11 -11 -19 6 -11 24 8 17 8 17 12 0 3 -10 2 -21 -1 -24z m64 -23 c0 -5
-18 -10 -40 -10 -22 0 -40 5 -40 10 0 6 18 10 40 10 22 0 40 -4 40 -10z m70
-5 c0 -8 -4 -15 -10 -15 -5 0 -10 7 -10 15 0 8 5 15 10 15 6 0 10 -7 10 -15z"/>
<path d="M70 199 c0 -15 4 -19 16 -15 9 3 24 6 35 6 10 0 19 7 19 15 0 8 -4
15 -10 15 -5 0 -10 -6 -10 -12 0 -8 -3 -9 -8 -3 -15 20 -42 17 -42 -6z"/>
<path d="M150 200 c0 -13 -7 -20 -18 -20 -35 0 -69 -59 -43 -74 4 -3 6 5 4 17
-9 44 47 63 71 25 14 -23 -2 -50 -35 -59 l-24 -7 25 -1 c15 -1 31 4 38 11 17
17 15 54 -4 72 -8 9 -11 16 -5 16 6 0 11 9 11 20 0 11 -4 20 -10 20 -5 0 -10
-9 -10 -20z"/>
<path d="M180 205 c0 -8 5 -15 10 -15 6 0 10 7 10 15 0 8 -4 15 -10 15 -5 0
-10 -7 -10 -15z"/>
<path d="M118 133 c6 -2 18 -2 25 0 6 3 1 5 -13 5 -14 0 -19 -2 -12 -5z"/>
<path d="M118 113 c6 -2 18 -2 25 0 6 3 1 5 -13 5 -14 0 -19 -2 -12 -5z"/>
</g>
</svg>
