<?xml version="1.0" standalone="no"?>
<!DOCTYPE svg PUBLIC "-//W3C//DTD SVG 20010904//EN"
 "http://www.w3.org/TR/2001/REC-SVG-20010904/DTD/svg10.dtd">
<svg version="1.0" xmlns="http://www.w3.org/2000/svg"
 width="512.000000pt" height="512.000000pt" viewBox="0 0 512.000000 512.000000"
 preserveAspectRatio="xMidYMid meet">

<g transform="translate(0.000000,512.000000) scale(0.100000,-0.100000)"
fill="#000000" stroke="none">
<path d="M1901 4476 c-8 -9 -18 -96 -27 -213 -8 -109 -17 -212 -20 -229 l-4
-31 -113 5 c-193 8 -407 -20 -602 -80 -167 -51 -198 -75 -181 -143 9 -35 40
-47 221 -90 123 -28 166 -43 185 -61 l24 -24 -13 -162 c-26 -345 -26 -333 -2
-357 45 -45 67 -34 336 155 138 97 263 182 280 189 18 8 37 10 51 5 12 -5 138
-90 280 -190 229 -160 262 -181 292 -178 24 2 41 11 54 29 19 25 19 29 0 259
-13 147 -17 242 -11 257 12 31 26 36 219 82 139 34 169 44 188 66 48 56 16
101 -101 143 -188 68 -466 109 -673 99 l-111 -5 -12 166 c-18 254 -23 292 -38
308 -21 20 -206 20 -222 0z"/>
<path d="M720 3733 c-285 -190 -518 -497 -629 -828 -168 -503 -98 -1040 192
-1470 93 -137 292 -331 445 -433 526 -351 1235 -462 1895 -297 99 25 244 71
264 83 8 5 -28 48 -95 118 -274 282 -413 623 -414 1014 0 274 65 512 203 746
204 346 578 609 964 679 50 9 103 19 118 23 l28 7 -79 90 c-117 135 -359 328
-370 296 -2 -7 -16 -37 -31 -65 -40 -76 -94 -108 -238 -142 -179 -41 -161 -18
-147 -180 18 -205 17 -281 -5 -330 -55 -121 -208 -177 -324 -118 -17 9 -129
85 -247 168 -118 84 -220 155 -226 159 -6 4 -119 -69 -253 -163 -133 -93 -259
-174 -279 -180 -125 -34 -261 40 -297 162 -14 49 -14 71 0 224 8 93 15 181 15
196 0 25 -4 27 -117 53 -65 15 -140 36 -166 48 -56 23 -112 85 -129 139 -6 21
-14 38 -17 38 -4 0 -31 -17 -61 -37z"/>
<path d="M3700 3204 c-14 -2 -56 -9 -95 -15 -106 -17 -249 -65 -359 -122 -353
-180 -595 -500 -683 -899 -25 -115 -24 -379 1 -496 111 -519 498 -906 1016
-1018 119 -26 381 -26 500 0 517 111 905 499 1016 1016 26 119 26 381 0 500
-85 393 -328 715 -676 894 -191 98 -333 134 -550 141 -80 2 -156 2 -170 -1z
m312 -328 c193 -37 361 -128 504 -270 144 -145 228 -303 270 -507 25 -123 15
-323 -20 -444 -99 -330 -338 -569 -671 -671 -84 -26 -102 -28 -265 -28 -163 0
-181 2 -265 28 -343 105 -589 358 -681 701 -15 55 -19 105 -19 235 0 182 11
241 70 381 99 236 315 443 554 529 47 18 115 38 151 45 88 18 282 18 372 1z"/>
<path d="M3772 2527 c-22 -23 -22 -29 -22 -331 l0 -307 25 -24 24 -25 231 0
231 0 24 25 c16 15 25 36 25 55 0 19 -9 40 -25 55 -24 25 -27 25 -200 25
l-175 0 0 253 c0 252 0 254 -23 275 -32 30 -87 29 -115 -1z"/>
</g>
</svg>
