<?xml version="1.0" standalone="no"?>
<!DOCTYPE svg PUBLIC "-//W3C//DTD SVG 20010904//EN"
 "http://www.w3.org/TR/2001/REC-SVG-20010904/DTD/svg10.dtd">
<svg version="1.0" xmlns="http://www.w3.org/2000/svg"
 width="512.000000pt" height="512.000000pt" viewBox="0 0 512.000000 512.000000"
 preserveAspectRatio="xMidYMid meet">

<g transform="translate(0.000000,512.000000) scale(0.100000,-0.100000)"
fill="#000000" stroke="none">
<path d="M3897 5105 c-276 -53 -519 -237 -642 -490 -70 -142 -88 -224 -88
-395 0 -129 3 -155 27 -234 21 -71 24 -91 14 -97 -7 -5 -341 -206 -743 -448
l-729 -439 -65 60 c-278 260 -667 320 -1006 153 -230 -112 -408 -329 -476
-580 -32 -115 -32 -335 0 -450 149 -548 747 -826 1257 -584 103 48 184 110
276 208 l73 77 700 -358 c384 -197 701 -361 703 -363 3 -2 -4 -37 -14 -77 -27
-105 -25 -304 5 -413 84 -311 334 -561 646 -646 115 -32 335 -32 450 0 251 68
468 246 580 476 70 142 88 223 88 395 0 172 -18 253 -88 395 -86 175 -235 325
-410 410 -357 175 -774 98 -1047 -193 l-73 -79 -700 359 c-385 198 -703 362
-706 366 -4 4 2 48 13 97 24 112 19 263 -13 375 -11 41 -22 86 -23 99 -1 21
76 70 734 466 l735 443 69 -65 c281 -265 669 -326 1011 -158 230 112 408 329
476 580 18 65 22 107 22 225 0 171 -18 253 -88 395 -112 230 -333 411 -580
475 -106 28 -283 35 -388 15z"/>
</g>
</svg>
